<svg width="30" height="76" viewBox="0 0 30 76" fill="none" xmlns="http://www.w3.org/2000/svg">
<g clip-path="url(#clip0_56_180)">
<path d="M10.37 28.53C9.89706 27.7198 9.64853 26.7982 9.65 25.86C9.65 24.4411 10.2137 23.0803 11.217 22.077C12.2203 21.0737 13.5811 20.51 15 20.51C16.4189 20.51 17.7797 21.0737 18.783 22.077C19.7863 23.0803 20.35 24.4411 20.35 25.86C20.3515 26.7982 20.1029 27.7198 19.63 28.53H10.37ZM30 14.27C29.375 13.5689 28.5741 13.0476 27.68 12.76C27.006 12.5178 26.2902 12.4134 25.5751 12.453C24.86 12.4927 24.1601 12.6754 23.5169 12.9906C22.8738 13.3057 22.3004 13.7468 21.8309 14.2876C21.3614 14.8284 21.0053 15.4581 20.7836 16.1391C20.5619 16.8201 20.4793 17.5388 20.5405 18.2523C20.6018 18.9659 20.8057 19.66 21.1401 20.2933C21.4746 20.9266 21.9328 21.4863 22.4876 21.9392C23.0425 22.3922 23.6826 22.7291 24.37 22.93C25.2632 23.2274 26.2199 23.2793 27.14 23.08L30 14.27ZM19.64 0C18.7813 0.379242 18.0375 0.977749 17.4833 1.73542C16.9291 2.49308 16.584 3.38323 16.4826 4.31647C16.3813 5.24971 16.5273 6.19318 16.906 7.05214C17.2847 7.9111 17.8827 8.6553 18.64 9.21C19.2104 9.62713 19.8579 9.9269 20.545 10.0919C21.2321 10.257 21.9451 10.284 22.6427 10.1715C23.3403 10.0589 24.0087 9.80903 24.609 9.43628C25.2094 9.06353 25.7297 8.57534 26.14 8C26.7015 7.24301 27.0471 6.34789 27.14 5.41L19.64 0ZM2.87 5.44C2.96525 6.36648 3.30711 7.25049 3.86 8C4.26356 8.59156 4.78177 9.09609 5.38392 9.48368C5.98607 9.87126 6.6599 10.134 7.36547 10.2564C8.07105 10.3787 8.79401 10.3582 9.4915 10.196C10.189 10.0337 10.8468 9.73314 11.426 9.31199C12.0051 8.89084 12.4939 8.3577 12.8632 7.74417C13.2325 7.13065 13.4749 6.44922 13.576 5.74029C13.6771 5.03136 13.6348 4.30934 13.4517 3.61704C13.2686 2.92474 12.9484 2.27625 12.51 1.71C11.9564 0.960615 11.2147 0.370725 10.36 0L2.87 5.44ZM2.87 23.08C3.79008 23.2793 4.74682 23.2274 5.64 22.93C6.3197 22.7219 6.9511 22.3804 7.49732 21.9254C8.04354 21.4705 8.49362 20.9113 8.82128 20.2805C9.14893 19.6496 9.34759 18.9598 9.40564 18.2514C9.46369 17.5429 9.37996 16.8299 9.15936 16.1542C8.93876 15.4784 8.58571 14.8534 8.12082 14.3157C7.65594 13.7779 7.08855 13.3382 6.4518 13.0222C5.81505 12.7062 5.12171 12.5202 4.41229 12.4752C3.70286 12.4302 2.99158 12.527 2.32 12.76C1.42593 13.0476 0.624965 13.5689 0 14.27L2.87 23.08Z" fill="#FF6442"/>
<path d="M14.8501 44.27V74.27" stroke="#FF6442" stroke-width="1.5" stroke-miterlimit="10" stroke-linecap="round"/>
</g>
<defs>
<clipPath id="clip0_56_180">
<rect width="30" height="75.02" fill="white"/>
</clipPath>
</defs>
</svg>
