<?xml version="1.0" encoding="utf-8"?>
<!-- Generator: Adobe Illustrator 24.0.3, SVG Export Plug-In . SVG Version: 6.00 Build 0)  -->
<svg version="1.1" xmlns="http://www.w3.org/2000/svg" xmlns:xlink="http://www.w3.org/1999/xlink" x="0px" y="0px"
	 viewBox="0 0 90 86.06" style="enable-background:new 0 0 90 86.06;" xml:space="preserve">
<style type="text/css">
	.st0{fill:#392390;}
	.st1{fill:#FF6442;}
	.st2{fill:#FFBA20;}
	.st3{clip-path:url(#SVGID_2_);}
	.st4{fill:#FFCF63;}
	.st5{fill:#E1E1E1;}
	.st6{fill:#FFFFFF;}
	.st7{fill:#FFEEC7;}
	.st8{fill:none;stroke:#FF6442;stroke-miterlimit:10;}
	.st9{fill:none;stroke:#392390;stroke-width:5;stroke-linecap:round;stroke-miterlimit:10;}
	.st10{fill:none;stroke:#FFFFFF;stroke-width:5;stroke-linecap:round;stroke-miterlimit:10;}
	.st11{fill:none;stroke:#392390;stroke-width:1.5;stroke-linecap:round;stroke-miterlimit:10;}
	.st12{fill:none;stroke:#FFFFFF;stroke-width:1.5;stroke-linecap:round;stroke-miterlimit:10;}
	.st13{fill:none;stroke:#FF6442;stroke-width:5;stroke-miterlimit:10;}
	.st14{clip-path:url(#SVGID_4_);}
	.st15{fill:none;stroke:#969696;stroke-miterlimit:10;}
	.st16{clip-path:url(#SVGID_6_);}
	.st17{clip-path:url(#SVGID_8_);}
	.st18{clip-path:url(#SVGID_10_);}
</style>
<g id="GRID">
</g>
<g id="Layer_2">
	<path class="st1" d="M49.35,29.79H40.9c-1.85,0-3.42-1.36-3.69-3.19L33.95,4.26C33.63,2.01,35.37,0,37.64,0h14.97
		c2.27,0,4.01,2.01,3.69,4.26l-3.26,22.34C52.77,28.44,51.2,29.79,49.35,29.79z M30.25,31.4L10,21.4c-2.04-1.01-4.49,0.03-5.19,2.19
		L0.18,37.83c-0.7,2.16,0.68,4.44,2.91,4.82l22.26,3.81c1.82,0.31,3.6-0.76,4.17-2.52l2.61-8.04C32.71,34.14,31.9,32.22,30.25,31.4z
		 M27.77,54.56L12,70.72c-1.59,1.63-1.36,4.28,0.48,5.61l12.11,8.8c1.84,1.33,4.43,0.73,5.49-1.28l10.5-19.99
		c0.86-1.64,0.39-3.66-1.11-4.74l-6.84-4.97C31.13,53.06,29.06,53.24,27.77,54.56z M49.03,64.08l10.5,19.99
		c1.06,2.01,3.65,2.62,5.49,1.28l12.11-8.8c1.84-1.33,2.06-3.99,0.48-5.61L61.83,54.77c-1.29-1.32-3.36-1.5-4.85-0.41l-6.84,4.97
		C48.64,60.42,48.17,62.44,49.03,64.08z M64.64,46.8l22.26-3.81c2.24-0.38,3.62-2.66,2.91-4.82l-4.63-14.24
		c-0.7-2.16-3.16-3.19-5.19-2.19l-20.24,10c-1.66,0.82-2.46,2.73-1.89,4.49l2.61,8.04C61.05,46.04,62.82,47.11,64.64,46.8z"/>
</g>
<g id="Layer_3">
</g>
<g id="Layer_4">
</g>
</svg>
