<?xml version="1.0" encoding="utf-8"?>
<!-- Generator: Adobe Illustrator 24.0.3, SVG Export Plug-In . SVG Version: 6.00 Build 0)  -->
<svg version="1.1" xmlns="http://www.w3.org/2000/svg" xmlns:xlink="http://www.w3.org/1999/xlink" x="0px" y="0px"
	 viewBox="0 0 84.82 119.43" style="enable-background:new 0 0 84.82 119.43;" xml:space="preserve">
<style type="text/css">
	.st0{fill:#392390;}
	.st1{fill:#FF6442;}
	.st2{fill:#FFBA20;}
	.st3{clip-path:url(#SVGID_2_);}
	.st4{fill:#FFCF63;}
	.st5{fill:#E1E1E1;}
	.st6{fill:#FFFFFF;}
	.st7{fill:#FFEEC7;}
	.st8{fill:none;stroke:#FF6442;stroke-miterlimit:10;}
	.st9{fill:none;stroke:#392390;stroke-width:5;stroke-linecap:round;stroke-miterlimit:10;}
	.st10{fill:none;stroke:#FFFFFF;stroke-width:5;stroke-linecap:round;stroke-miterlimit:10;}
	.st11{fill:none;stroke:#392390;stroke-width:1.5;stroke-linecap:round;stroke-miterlimit:10;}
	.st12{fill:none;stroke:#FFFFFF;stroke-width:1.5;stroke-linecap:round;stroke-miterlimit:10;}
	.st13{fill:none;stroke:#FF6442;stroke-width:5;stroke-miterlimit:10;}
	.st14{clip-path:url(#SVGID_4_);}
	.st15{fill:none;stroke:#969696;stroke-miterlimit:10;}
	.st16{clip-path:url(#SVGID_6_);}
	.st17{clip-path:url(#SVGID_8_);}
	.st18{clip-path:url(#SVGID_10_);}
</style>
<g id="GRID">
</g>
<g id="Layer_2">
	<g>
		<path class="st1" d="M23.21,56.7l9.87-4.09c0.53-0.22,1.1-0.33,1.67-0.33h1.97c0.85,0,1.53,0.69,1.53,1.53v9.4
			c0,1.21-0.98,2.19-2.19,2.19H24.05c-1.21,0-2.19-0.98-2.19-2.19v-4.49C21.86,57.83,22.39,57.04,23.21,56.7z M28.42,1.53
			c0-0.88-0.73-1.58-1.61-1.53C9.82,0.93,0.01,13.46,0.01,28.78L0,116.52c0,1.21,0.98,2.19,2.19,2.19h1.75
			c0.29,0,0.57-0.06,0.84-0.17l10.27-4.26c0.82-0.34,1.35-1.14,1.35-2.02V51.34V22.01c0-8,4.55-14.94,11.21-18.37
			c0.5-0.26,0.82-0.78,0.82-1.35V1.53z M48.42,7.49c-1.48-3.53-4.96-6.01-9.02-6.03c-5.29-0.03-9.73,4.26-9.88,9.55
			c-0.04,1.42,0.22,2.78,0.72,4.01c0.46,1.13,1.74,1.67,2.87,1.21l14.13-5.85C48.37,9.9,48.89,8.61,48.42,7.49z"/>
		<path class="st1" d="M72.86,1.24h-1.75c-0.29,0-0.57,0.06-0.84,0.17l-9.73,4.03c-0.82,0.34-1.35,1.14-1.35,2.02v83.5
			c0,14.32,10.43,26.19,24.11,28.45c0.8,0.13,1.52-0.49,1.52-1.3v-0.8c0-0.45-0.23-0.85-0.6-1.1c-5.53-3.71-9.17-10.01-9.17-17.17
			V3.43C75.05,2.22,74.07,1.24,72.86,1.24z"/>
	</g>
</g>
<g id="Layer_3">
</g>
<g id="Layer_4">
</g>
</svg>
