<?xml version="1.0" encoding="utf-8"?>
<!-- Generator: Adobe Illustrator 24.0.3, SVG Export Plug-In . SVG Version: 6.00 Build 0)  -->
<svg version="1.1" xmlns="http://www.w3.org/2000/svg" xmlns:xlink="http://www.w3.org/1999/xlink" x="0px" y="0px"
	 viewBox="0 0 570 544.44" style="enable-background:new 0 0 570 544.44;" xml:space="preserve">
<style type="text/css">
	.st0{fill:#392390;}
	.st1{fill:#FF6442;}
	.st2{fill:#FFBA20;}
	.st3{clip-path:url(#SVGID_2_);}
	.st4{fill:#FFCF63;}
	.st5{fill:#E1E1E1;}
	.st6{fill:#FFFFFF;}
	.st7{fill:#FFEEC7;}
	.st8{fill:none;stroke:#FF6442;stroke-miterlimit:10;}
	.st9{fill:none;stroke:#392390;stroke-width:5;stroke-linecap:round;stroke-miterlimit:10;}
	.st10{fill:none;stroke:#FFFFFF;stroke-width:5;stroke-linecap:round;stroke-miterlimit:10;}
	.st11{fill:none;stroke:#392390;stroke-width:1.5;stroke-linecap:round;stroke-miterlimit:10;}
	.st12{fill:none;stroke:#FFFFFF;stroke-width:1.5;stroke-linecap:round;stroke-miterlimit:10;}
	.st13{fill:none;stroke:#FF6442;stroke-width:5;stroke-miterlimit:10;}
	.st14{fill:#808080;}
	.st15{fill:#B3B3B3;}
	.st16{fill:url(#SVGID_3_);}
	.st17{display:none;}
	.st18{display:inline;}
	.st19{clip-path:url(#SVGID_5_);}
	.st20{fill:none;stroke:#969696;stroke-miterlimit:10;}
	.st21{clip-path:url(#SVGID_7_);}
	.st22{clip-path:url(#SVGID_9_);}
	.st23{clip-path:url(#SVGID_11_);}
	.st24{filter:url(#Adobe_OpacityMaskFilter);}
	.st25{fill:url(#SVGID_13_);}
	.st26{fill:url(#SVGID_14_);}
	.st27{fill:url(#SVGID_15_);}
	.st28{mask:url(#SVGID_12_);fill:url(#);}
	.st29{filter:url(#Adobe_OpacityMaskFilter_1_);}
	.st30{fill:url(#SVGID_17_);}
	.st31{mask:url(#SVGID_16_);fill:url(#);}
	.st32{filter:url(#Adobe_OpacityMaskFilter_2_);}
	.st33{fill:url(#SVGID_19_);}
	.st34{fill:url(#SVGID_20_);}
	.st35{fill:url(#SVGID_21_);}
	.st36{fill:url(#SVGID_22_);}
	.st37{mask:url(#SVGID_18_);fill:url(#);}
	.st38{filter:url(#Adobe_OpacityMaskFilter_3_);}
	.st39{fill:url(#SVGID_24_);}
	.st40{fill:url(#SVGID_25_);}
	.st41{opacity:0.7;mask:url(#SVGID_23_);fill:url(#);}
	.st42{filter:url(#Adobe_OpacityMaskFilter_4_);}
	.st43{opacity:0.7;mask:url(#SVGID_26_);fill:url(#);}
	.st44{filter:url(#Adobe_OpacityMaskFilter_5_);}
	.st45{fill:url(#SVGID_28_);}
	.st46{opacity:0.7;mask:url(#SVGID_27_);fill:url(#);}
	.st47{filter:url(#Adobe_OpacityMaskFilter_6_);}
	.st48{fill:url(#SVGID_30_);}
	.st49{opacity:0.7;mask:url(#SVGID_29_);fill:url(#);}
	.st50{fill:none;stroke:#FF6442;stroke-width:18;stroke-linecap:round;stroke-linejoin:round;stroke-miterlimit:10;}
	.st51{filter:url(#Adobe_OpacityMaskFilter_7_);}
	.st52{opacity:0.7;mask:url(#SVGID_31_);fill:url(#);}
	.st53{filter:url(#Adobe_OpacityMaskFilter_8_);}
	.st54{fill:url(#SVGID_33_);}
	.st55{opacity:0.7;mask:url(#SVGID_32_);fill:url(#);}
	.st56{filter:url(#Adobe_OpacityMaskFilter_9_);}
	.st57{opacity:0.7;mask:url(#SVGID_34_);fill:url(#);}
	.st58{filter:url(#Adobe_OpacityMaskFilter_10_);}
	.st59{fill:url(#SVGID_36_);}
	.st60{fill:url(#SVGID_37_);}
	.st61{mask:url(#SVGID_35_);fill:url(#);}
	.st62{filter:url(#Adobe_OpacityMaskFilter_11_);}
	.st63{fill:url(#SVGID_39_);}
	.st64{fill:url(#SVGID_40_);}
	.st65{fill:url(#SVGID_41_);}
	.st66{fill:url(#SVGID_42_);}
	.st67{mask:url(#SVGID_38_);fill:url(#);}
	.st68{filter:url(#Adobe_OpacityMaskFilter_12_);}
	.st69{fill:url(#SVGID_44_);}
	.st70{opacity:0.7;mask:url(#SVGID_43_);fill:url(#);}
	.st71{filter:url(#Adobe_OpacityMaskFilter_13_);}
	.st72{fill:url(#SVGID_46_);}
	.st73{fill:url(#SVGID_47_);}
	.st74{mask:url(#SVGID_45_);fill:url(#);}
	.st75{filter:url(#Adobe_OpacityMaskFilter_14_);}
	.st76{opacity:0.7;mask:url(#SVGID_48_);fill:url(#);}
	.st77{filter:url(#Adobe_OpacityMaskFilter_15_);}
	.st78{fill:url(#SVGID_50_);}
	.st79{opacity:0.7;mask:url(#SVGID_49_);fill:url(#);}
	.st80{filter:url(#Adobe_OpacityMaskFilter_16_);}
	.st81{fill:url(#SVGID_52_);}
	.st82{opacity:0.7;mask:url(#SVGID_51_);fill:url(#);}
	.st83{filter:url(#Adobe_OpacityMaskFilter_17_);}
	.st84{opacity:0.7;mask:url(#SVGID_53_);fill:url(#);}
	.st85{filter:url(#Adobe_OpacityMaskFilter_18_);}
	.st86{fill:url(#SVGID_55_);}
	.st87{fill:url(#SVGID_56_);}
	.st88{fill:url(#SVGID_57_);}
	.st89{mask:url(#SVGID_54_);fill:url(#);}
	.st90{filter:url(#Adobe_OpacityMaskFilter_19_);}
	.st91{fill:url(#SVGID_59_);}
	.st92{mask:url(#SVGID_58_);fill:url(#);}
	.st93{filter:url(#Adobe_OpacityMaskFilter_20_);}
	.st94{fill:url(#SVGID_61_);}
	.st95{opacity:0.7;mask:url(#SVGID_60_);fill:url(#);}
	.st96{filter:url(#Adobe_OpacityMaskFilter_21_);}
	.st97{fill:url(#SVGID_63_);}
	.st98{opacity:0.7;mask:url(#SVGID_62_);fill:url(#);}
	.st99{filter:url(#Adobe_OpacityMaskFilter_22_);}
	.st100{opacity:0.7;mask:url(#SVGID_64_);fill:url(#);}
	.st101{filter:url(#Adobe_OpacityMaskFilter_23_);}
	.st102{fill:url(#SVGID_66_);}
	.st103{fill:url(#SVGID_67_);}
	.st104{fill:url(#SVGID_68_);}
	.st105{fill:url(#SVGID_69_);}
	.st106{mask:url(#SVGID_65_);fill:url(#);}
	.st107{filter:url(#Adobe_OpacityMaskFilter_24_);}
	.st108{fill:url(#SVGID_71_);}
	.st109{fill:url(#SVGID_72_);}
	.st110{mask:url(#SVGID_70_);fill:url(#);}
	.st111{filter:url(#Adobe_OpacityMaskFilter_25_);}
	.st112{opacity:0.7;mask:url(#SVGID_73_);fill:url(#);}
	.st113{filter:url(#Adobe_OpacityMaskFilter_26_);}
	.st114{fill:url(#SVGID_75_);}
	.st115{fill:url(#SVGID_76_);}
	.st116{mask:url(#SVGID_74_);fill:url(#);}
	.st117{filter:url(#Adobe_OpacityMaskFilter_27_);}
	.st118{fill:url(#SVGID_78_);}
	.st119{fill:url(#SVGID_79_);}
	.st120{fill:url(#SVGID_80_);}
	.st121{fill:url(#SVGID_81_);}
	.st122{mask:url(#SVGID_77_);fill:url(#);}
	.st123{filter:url(#Adobe_OpacityMaskFilter_28_);}
	.st124{fill:url(#SVGID_83_);}
	.st125{opacity:0.7;mask:url(#SVGID_82_);fill:url(#);}
	.st126{filter:url(#Adobe_OpacityMaskFilter_29_);}
	.st127{fill:url(#SVGID_85_);}
	.st128{fill:url(#SVGID_86_);}
	.st129{opacity:0.7;mask:url(#SVGID_84_);fill:url(#);}
	.st130{filter:url(#Adobe_OpacityMaskFilter_30_);}
	.st131{opacity:0.7;mask:url(#SVGID_87_);fill:url(#);}
	.st132{filter:url(#Adobe_OpacityMaskFilter_31_);}
	.st133{fill:url(#SVGID_89_);}
	.st134{opacity:0.7;mask:url(#SVGID_88_);fill:url(#);}
	.st135{filter:url(#Adobe_OpacityMaskFilter_32_);}
	.st136{fill:url(#SVGID_91_);}
	.st137{opacity:0.7;mask:url(#SVGID_90_);fill:url(#);}
	.st138{filter:url(#Adobe_OpacityMaskFilter_33_);}
	.st139{opacity:0.7;mask:url(#SVGID_92_);fill:url(#);}
	.st140{filter:url(#Adobe_OpacityMaskFilter_34_);}
	.st141{fill:url(#SVGID_94_);}
	.st142{opacity:0.7;mask:url(#SVGID_93_);fill:url(#);}
	.st143{filter:url(#Adobe_OpacityMaskFilter_35_);}
	.st144{opacity:0.7;mask:url(#SVGID_95_);fill:url(#);}
</style>
<g id="GRID">
</g>
<g id="Layer_2">
	<g>
		<path class="st4" d="M318.52,0h-67.05c-13.25,0-23.98,10.74-23.98,23.98v153.31c0,13.25,10.74,23.98,23.98,23.98h0
			c3.15,0,6.27-0.62,9.18-1.83l67.05-27.77c8.96-3.71,14.8-12.46,14.8-22.16V23.98C342.51,10.74,331.77,0,318.52,0z"/>
		<path class="st4" d="M21.9,166.8L1.18,230.56c-4.09,12.6,2.8,26.13,15.4,30.22l145.8,47.37c12.6,4.09,26.13-2.8,30.22-15.4v0
			c0.97-3,1.35-6.15,1.1-9.29l-5.69-72.35c-0.76-9.67-7.27-17.93-16.5-20.93L52.12,151.4C39.52,147.31,25.99,154.2,21.9,166.8z"/>
		<path class="st4" d="M88.87,500.45l54.24,39.41c10.72,7.79,25.71,5.41,33.5-5.31l90.11-124.03c7.79-10.72,5.41-25.71-5.31-33.5
			l0,0c-2.55-1.85-5.44-3.18-8.5-3.92l-70.57-16.94c-9.43-2.26-19.3,1.38-25,9.22L83.57,466.95
			C75.78,477.66,78.16,492.66,88.87,500.45z"/>
		<path class="st4" d="M426.89,539.86l54.24-39.41c10.72-7.79,13.09-22.78,5.31-33.5l-90.11-124.03
			c-7.79-10.72-22.78-13.09-33.5-5.31l0,0c-2.55,1.85-4.71,4.19-6.35,6.87l-37.92,61.88c-5.07,8.27-4.66,18.78,1.05,26.63
			l73.79,101.56C401.17,545.27,416.17,547.64,426.89,539.86z"/>
		<path class="st4" d="M568.82,230.56L548.1,166.8c-4.09-12.6-17.62-19.49-30.22-15.4l-145.8,47.37
			c-12.6,4.09-19.49,17.62-15.4,30.22v0c0.97,3,2.53,5.77,4.57,8.16l47.13,55.18c6.3,7.38,16.42,10.23,25.65,7.23l119.39-38.79
			C566.02,256.69,572.91,243.16,568.82,230.56z"/>
	</g>
</g>
<g id="LOGO">
</g>
<g id="Layer_4" class="st17">
</g>
<g id="ILLUSTRATION">
</g>
</svg>
