<?xml version="1.0" encoding="utf-8"?>
<!-- Generator: Adobe Illustrator 24.0.3, SVG Export Plug-In . SVG Version: 6.00 Build 0)  -->
<svg version="1.1" xmlns="http://www.w3.org/2000/svg" xmlns:xlink="http://www.w3.org/1999/xlink" x="0px" y="0px"
	 viewBox="0 0 450.39 163.03" style="enable-background:new 0 0 450.39 163.03;" xml:space="preserve">
<style type="text/css">
	.st0{fill:#392390;}
	.st1{fill:#FF6442;}
	.st2{fill:#FFBA20;}
	.st3{clip-path:url(#SVGID_2_);}
	.st4{fill:#FFCF63;}
	.st5{fill:#E1E1E1;}
	.st6{fill:#FFFFFF;}
	.st7{fill:#FFEEC7;}
	.st8{fill:none;stroke:#FF6442;stroke-miterlimit:10;}
	.st9{fill:none;stroke:#392390;stroke-width:5;stroke-linecap:round;stroke-miterlimit:10;}
	.st10{fill:none;stroke:#FFFFFF;stroke-width:5;stroke-linecap:round;stroke-miterlimit:10;}
	.st11{fill:none;stroke:#392390;stroke-width:1.5;stroke-linecap:round;stroke-miterlimit:10;}
	.st12{fill:none;stroke:#FFFFFF;stroke-width:1.5;stroke-linecap:round;stroke-miterlimit:10;}
	.st13{fill:none;stroke:#FF6442;stroke-width:5;stroke-miterlimit:10;}
	.st14{clip-path:url(#SVGID_4_);}
	.st15{fill:none;stroke:#969696;stroke-miterlimit:10;}
	.st16{clip-path:url(#SVGID_6_);}
	.st17{clip-path:url(#SVGID_8_);}
	.st18{clip-path:url(#SVGID_10_);}
</style>
<g id="GRID">
</g>
<g id="Layer_2">
	<g>
		<g>
			<path class="st1" d="M24.68,134.9h-4.23c-0.92,0-1.71-0.68-1.84-1.59l-1.63-11.17c-0.16-1.12,0.71-2.13,1.84-2.13h7.49
				c1.14,0,2.01,1.01,1.84,2.13l-1.63,11.17C26.39,134.22,25.6,134.9,24.68,134.9z M15.12,135.7L5,130.7
				c-1.02-0.5-2.25,0.01-2.6,1.09l-2.31,7.12c-0.35,1.08,0.34,2.22,1.46,2.41l11.13,1.9c0.91,0.16,1.8-0.38,2.08-1.26l1.31-4.02
				C16.36,137.07,15.95,136.11,15.12,135.7z M13.88,147.28L6,155.36c-0.79,0.81-0.68,2.14,0.24,2.81l6.06,4.4
				c0.92,0.67,2.22,0.36,2.74-0.64l5.25-10c0.43-0.82,0.19-1.83-0.55-2.37l-3.42-2.49C15.56,146.53,14.53,146.62,13.88,147.28z
				 M24.51,152.04l5.25,10c0.53,1.01,1.82,1.31,2.74,0.64l6.06-4.4c0.92-0.67,1.03-1.99,0.24-2.81l-7.89-8.08
				c-0.65-0.66-1.68-0.75-2.43-0.21l-3.42,2.49C24.32,150.21,24.08,151.22,24.51,152.04z M32.32,143.4l11.13-1.9
				c1.12-0.19,1.81-1.33,1.46-2.41l-2.31-7.12c-0.35-1.08-1.58-1.6-2.6-1.09l-10.12,5c-0.83,0.41-1.23,1.37-0.95,2.24l1.31,4.02
				C30.52,143.02,31.41,143.56,32.32,143.4z"/>
			<path class="st1" d="M294.93,134.9h-4.23c-0.92,0-1.71-0.68-1.84-1.59l-1.63-11.17c-0.16-1.12,0.71-2.13,1.84-2.13h7.49
				c1.14,0,2.01,1.01,1.84,2.13l-1.63,11.17C296.64,134.22,295.86,134.9,294.93,134.9z M285.38,135.7l-10.12-5
				c-1.02-0.5-2.25,0.01-2.6,1.09l-2.31,7.12c-0.35,1.08,0.34,2.22,1.46,2.41l11.13,1.9c0.91,0.16,1.8-0.38,2.08-1.26l1.31-4.02
				C286.61,137.07,286.21,136.11,285.38,135.7z M284.14,147.28l-7.89,8.08c-0.79,0.81-0.68,2.14,0.24,2.81l6.06,4.4
				c0.92,0.67,2.22,0.36,2.74-0.64l5.25-10c0.43-0.82,0.19-1.83-0.55-2.37l-3.42-2.49C285.82,146.53,284.79,146.62,284.14,147.28z
				 M294.77,152.04l5.25,10c0.53,1.01,1.82,1.31,2.74,0.64l6.06-4.4c0.92-0.67,1.03-1.99,0.24-2.81l-7.89-8.08
				c-0.65-0.66-1.68-0.75-2.43-0.21l-3.42,2.49C294.58,150.21,294.34,151.22,294.77,152.04z M302.58,143.4l11.13-1.9
				c1.12-0.19,1.81-1.33,1.46-2.41l-2.31-7.12c-0.35-1.08-1.58-1.6-2.6-1.09l-10.12,5c-0.83,0.41-1.23,1.37-0.95,2.24l1.31,4.02
				C300.78,143.02,301.67,143.56,302.58,143.4z"/>
			<path class="st1" d="M430.06,134.9h-4.23c-0.92,0-1.71-0.68-1.84-1.59l-1.63-11.17c-0.16-1.12,0.71-2.13,1.84-2.13h7.49
				c1.14,0,2.01,1.01,1.84,2.13l-1.63,11.17C431.77,134.22,430.99,134.9,430.06,134.9z M420.51,135.7l-10.12-5
				c-1.02-0.5-2.25,0.01-2.6,1.09l-2.31,7.12c-0.35,1.08,0.34,2.22,1.46,2.41l11.13,1.9c0.91,0.16,1.8-0.38,2.08-1.26l1.31-4.02
				C421.74,137.07,421.34,136.11,420.51,135.7z M419.27,147.28l-7.89,8.08c-0.79,0.81-0.68,2.14,0.24,2.81l6.06,4.4
				c0.92,0.67,2.22,0.36,2.74-0.64l5.25-10c0.43-0.82,0.19-1.83-0.55-2.37l-3.42-2.49C420.95,146.53,419.92,146.62,419.27,147.28z
				 M429.9,152.04l5.25,10c0.53,1.01,1.82,1.31,2.74,0.64l6.06-4.4c0.92-0.67,1.03-1.99,0.24-2.81l-7.89-8.08
				c-0.65-0.66-1.68-0.75-2.43-0.21l-3.42,2.49C429.71,150.21,429.47,151.22,429.9,152.04z M437.71,143.4l11.13-1.9
				c1.12-0.19,1.81-1.33,1.46-2.41l-2.31-7.12c-0.35-1.08-1.58-1.6-2.6-1.09l-10.12,5c-0.83,0.41-1.23,1.37-0.95,2.24l1.31,4.02
				C435.91,143.02,436.8,143.56,437.71,143.4z"/>
			<path class="st1" d="M159.81,134.9h-4.23c-0.92,0-1.71-0.68-1.84-1.59l-1.63-11.17c-0.16-1.12,0.71-2.13,1.84-2.13h7.49
				c1.14,0,2.01,1.01,1.84,2.13l-1.63,11.17C161.51,134.22,160.73,134.9,159.81,134.9z M150.25,135.7l-10.12-5
				c-1.02-0.5-2.25,0.01-2.6,1.09l-2.31,7.12c-0.35,1.08,0.34,2.22,1.46,2.41l11.13,1.9c0.91,0.16,1.8-0.38,2.08-1.26l1.31-4.02
				C151.48,137.07,151.08,136.11,150.25,135.7z M149.01,147.28l-7.89,8.08c-0.79,0.81-0.68,2.14,0.24,2.81l6.06,4.4
				c0.92,0.67,2.22,0.36,2.74-0.64l5.25-10c0.43-0.82,0.19-1.83-0.55-2.37l-3.42-2.49C150.69,146.53,149.66,146.62,149.01,147.28z
				 M159.64,152.04l5.25,10c0.53,1.01,1.82,1.31,2.74,0.64l6.06-4.4c0.92-0.67,1.03-1.99,0.24-2.81l-7.89-8.08
				c-0.65-0.66-1.68-0.75-2.43-0.21l-3.42,2.49C159.45,150.21,159.21,151.22,159.64,152.04z M167.45,143.4l11.13-1.9
				c1.12-0.19,1.81-1.33,1.46-2.41l-2.31-7.12c-0.35-1.08-1.58-1.6-2.6-1.09l-10.12,5c-0.83,0.41-1.23,1.37-0.95,2.24l1.31,4.02
				C165.65,143.02,166.54,143.56,167.45,143.4z"/>
		</g>
		<g>
			<path class="st1" d="M24.68,14.9h-4.23c-0.92,0-1.71-0.68-1.84-1.59L16.98,2.13C16.81,1.01,17.68,0,18.82,0h7.49
				c1.14,0,2.01,1.01,1.84,2.13L26.52,13.3C26.39,14.22,25.6,14.9,24.68,14.9z M15.12,15.7L5,10.7c-1.02-0.5-2.25,0.01-2.6,1.09
				l-2.31,7.12c-0.35,1.08,0.34,2.22,1.46,2.41l11.13,1.9c0.91,0.16,1.8-0.38,2.08-1.26l1.31-4.02
				C16.36,17.07,15.95,16.11,15.12,15.7z M13.88,27.28L6,35.36c-0.79,0.81-0.68,2.14,0.24,2.81l6.06,4.4
				c0.92,0.67,2.22,0.36,2.74-0.64l5.25-10c0.43-0.82,0.19-1.83-0.55-2.37l-3.42-2.49C15.56,26.53,14.53,26.62,13.88,27.28z
				 M24.51,32.04l5.25,10c0.53,1.01,1.82,1.31,2.74,0.64l6.06-4.4c0.92-0.67,1.03-1.99,0.24-2.81l-7.89-8.08
				c-0.65-0.66-1.68-0.75-2.43-0.21l-3.42,2.49C24.32,30.21,24.08,31.22,24.51,32.04z M32.32,23.4l11.13-1.9
				c1.12-0.19,1.81-1.33,1.46-2.41l-2.31-7.12c-0.35-1.08-1.58-1.6-2.6-1.09l-10.12,5c-0.83,0.41-1.23,1.37-0.95,2.24l1.31,4.02
				C30.52,23.02,31.41,23.56,32.32,23.4z"/>
			<path class="st1" d="M294.93,14.9h-4.23c-0.92,0-1.71-0.68-1.84-1.59l-1.63-11.17C287.07,1.01,287.94,0,289.08,0h7.49
				c1.14,0,2.01,1.01,1.84,2.13l-1.63,11.17C296.64,14.22,295.86,14.9,294.93,14.9z M285.38,15.7l-10.12-5
				c-1.02-0.5-2.25,0.01-2.6,1.09l-2.31,7.12c-0.35,1.08,0.34,2.22,1.46,2.41l11.13,1.9c0.91,0.16,1.8-0.38,2.08-1.26l1.31-4.02
				C286.61,17.07,286.21,16.11,285.38,15.7z M284.14,27.28l-7.89,8.08c-0.79,0.81-0.68,2.14,0.24,2.81l6.06,4.4
				c0.92,0.67,2.22,0.36,2.74-0.64l5.25-10c0.43-0.82,0.19-1.83-0.55-2.37l-3.42-2.49C285.82,26.53,284.79,26.62,284.14,27.28z
				 M294.77,32.04l5.25,10c0.53,1.01,1.82,1.31,2.74,0.64l6.06-4.4c0.92-0.67,1.03-1.99,0.24-2.81l-7.89-8.08
				c-0.65-0.66-1.68-0.75-2.43-0.21l-3.42,2.49C294.58,30.21,294.34,31.22,294.77,32.04z M302.58,23.4l11.13-1.9
				c1.12-0.19,1.81-1.33,1.46-2.41l-2.31-7.12c-0.35-1.08-1.58-1.6-2.6-1.09l-10.12,5c-0.83,0.41-1.23,1.37-0.95,2.24l1.31,4.02
				C300.78,23.02,301.67,23.56,302.58,23.4z"/>
			<path class="st1" d="M430.06,14.9h-4.23c-0.92,0-1.71-0.68-1.84-1.59l-1.63-11.17C422.2,1.01,423.07,0,424.21,0h7.49
				c1.14,0,2.01,1.01,1.84,2.13l-1.63,11.17C431.77,14.22,430.99,14.9,430.06,14.9z M420.51,15.7l-10.12-5
				c-1.02-0.5-2.25,0.01-2.6,1.09l-2.31,7.12c-0.35,1.08,0.34,2.22,1.46,2.41l11.13,1.9c0.91,0.16,1.8-0.38,2.08-1.26l1.31-4.02
				C421.74,17.07,421.34,16.11,420.51,15.7z M419.27,27.28l-7.89,8.08c-0.79,0.81-0.68,2.14,0.24,2.81l6.06,4.4
				c0.92,0.67,2.22,0.36,2.74-0.64l5.25-10c0.43-0.82,0.19-1.83-0.55-2.37l-3.42-2.49C420.95,26.53,419.92,26.62,419.27,27.28z
				 M429.9,32.04l5.25,10c0.53,1.01,1.82,1.31,2.74,0.64l6.06-4.4c0.92-0.67,1.03-1.99,0.24-2.81l-7.89-8.08
				c-0.65-0.66-1.68-0.75-2.43-0.21l-3.42,2.49C429.71,30.21,429.47,31.22,429.9,32.04z M437.71,23.4l11.13-1.9
				c1.12-0.19,1.81-1.33,1.46-2.41l-2.31-7.12c-0.35-1.08-1.58-1.6-2.6-1.09l-10.12,5c-0.83,0.41-1.23,1.37-0.95,2.24l1.31,4.02
				C435.91,23.02,436.8,23.56,437.71,23.4z"/>
			<path class="st1" d="M159.81,14.9h-4.23c-0.92,0-1.71-0.68-1.84-1.59l-1.63-11.17C151.94,1.01,152.81,0,153.95,0h7.49
				c1.14,0,2.01,1.01,1.84,2.13l-1.63,11.17C161.51,14.22,160.73,14.9,159.81,14.9z M150.25,15.7l-10.12-5
				c-1.02-0.5-2.25,0.01-2.6,1.09l-2.31,7.12c-0.35,1.08,0.34,2.22,1.46,2.41l11.13,1.9c0.91,0.16,1.8-0.38,2.08-1.26l1.31-4.02
				C151.48,17.07,151.08,16.11,150.25,15.7z M149.01,27.28l-7.89,8.08c-0.79,0.81-0.68,2.14,0.24,2.81l6.06,4.4
				c0.92,0.67,2.22,0.36,2.74-0.64l5.25-10c0.43-0.82,0.19-1.83-0.55-2.37l-3.42-2.49C150.69,26.53,149.66,26.62,149.01,27.28z
				 M159.64,32.04l5.25,10c0.53,1.01,1.82,1.31,2.74,0.64l6.06-4.4c0.92-0.67,1.03-1.99,0.24-2.81l-7.89-8.08
				c-0.65-0.66-1.68-0.75-2.43-0.21l-3.42,2.49C159.45,30.21,159.21,31.22,159.64,32.04z M167.45,23.4l11.13-1.9
				c1.12-0.19,1.81-1.33,1.46-2.41l-2.31-7.12c-0.35-1.08-1.58-1.6-2.6-1.09l-10.12,5c-0.83,0.41-1.23,1.37-0.95,2.24l1.31,4.02
				C165.65,23.02,166.54,23.56,167.45,23.4z"/>
		</g>
	</g>
</g>
<g id="Layer_3">
</g>
<g id="Layer_4">
</g>
</svg>
